<!-- Generated by IcoMoon.io -->
<svg version="1.1" xmlns="http://www.w3.org/2000/svg" width="1024" height="1024" viewBox="0 0 1024 1024">
<g id="icomoon-ignore">
</g>
<path d="M1022.997 301.059c-2.398-54.409-11.196-91.815-23.799-124.227-13.005-34.405-33.007-65.208-59.217-90.815-25.604-26.005-56.61-46.212-90.62-59.012-32.597-12.604-69.807-21.403-124.22-23.802-54.814-2.602-72.213-3.204-211.243-3.204-139.027 0-156.428 0.602-211.041 3.001-54.409 2.399-91.814 11.205-124.219 23.802-34.413 13.003-65.216 33.006-90.822 59.215-26.005 25.606-46.204 56.613-59.011 90.619-12.604 32.608-21.403 69.81-23.802 124.219-2.602 54.816-3.204 72.218-3.204 211.243 0 139.029 0.602 156.429 3.001 211.042 2.399 54.409 11.205 91.814 23.809 124.228 13.003 34.406 33.202 65.207 59.207 90.816 25.607 26.005 56.613 46.212 90.619 59.012 32.608 12.604 69.81 21.402 124.227 23.799 54.604 2.406 72.014 2.999 211.040 2.999 139.029 0 156.429-0.593 211.042-2.999 54.409-2.398 91.814-11.196 124.22-23.799 68.817-26.607 123.226-81.020 149.833-149.828 12.599-32.606 21.406-69.82 23.804-124.228 2.398-54.613 2.999-72.013 2.999-211.042 0-139.025-0.205-156.427-2.603-211.039zM930.786 719.142c-2.206 50.010-10.607 77.013-17.604 95.019-17.207 44.608-52.612 80.013-97.225 97.22-18.001 7.002-45.205 15.403-95.019 17.596-54.012 2.406-70.208 3.004-206.835 3.004-136.629 0-153.031-0.597-206.846-3.004-50.010-2.193-77.015-10.594-95.018-17.596-22.2-8.205-42.407-21.21-58.808-38.212-17.004-16.602-30.006-36.608-38.211-58.807-7.002-18.001-15.401-45.21-17.597-95.019-2.406-54.012-3-70.217-3-206.844 0-136.629 0.594-153.030 3-206.838 2.196-50.010 10.596-77.015 17.597-95.019 8.205-22.208 21.207-42.407 38.414-58.816 16.597-17.003 36.601-30.006 58.808-38.202 18.004-7.002 45.212-15.401 95.018-17.605 54.011-2.399 70.217-3.001 206.835-3.001 136.832 0 153.033 0.602 206.848 3.001 50.010 2.204 77.013 10.604 95.019 17.605 22.199 8.197 42.406 21.199 58.807 38.202 17.003 16.605 30.007 36.609 38.212 58.816 6.997 18.004 15.398 45.204 17.604 95.019 2.398 54.010 2.999 70.209 2.999 206.838 0 136.627-0.602 152.631-2.999 206.643z"></path>
<path d="M513.899 249.041c-145.222 0-263.050 117.82-263.050 263.052 0 145.229 117.828 263.049 263.050 263.049 145.233 0 263.053-117.82 263.053-263.049 0-145.232-117.82-263.052-263.053-263.052zM513.899 682.726c-94.212 0-170.633-76.412-170.633-170.633 0-94.223 76.421-170.636 170.633-170.636 94.225 0 170.637 76.413 170.637 170.636 0 94.221-76.412 170.633-170.637 170.633z"></path>
<path d="M848.768 238.65c0 33.913-27.494 61.411-61.419 61.411-33.911 0-61.41-27.497-61.41-61.411 0-33.92 27.499-61.411 61.41-61.411 33.924 0 61.419 27.49 61.419 61.411z"></path>
</svg>
