<!-- Generated by IcoMoon.io -->
<svg version="1.1" xmlns="http://www.w3.org/2000/svg" width="1024" height="1024" viewBox="0 0 1024 1024">
<g id="icomoon-ignore">
</g>
<path d="M1023.748 1024v-0.043h0.256v-375.552c0-183.723-39.552-325.249-254.336-325.249-103.258 0-172.548 56.661-200.836 110.38h-2.987v-93.228h-203.646v683.649h212.052v-338.517c0-89.131 16.896-175.317 127.275-175.317 108.762 0 110.383 101.717 110.383 181.035v332.843h211.84z"></path>
<path d="M16.897 340.354h212.309v683.646h-212.309v-683.646z"></path>
<path d="M122.967 0c-67.883 0-122.965 55.083-122.965 122.965s55.083 124.117 122.965 124.117c67.883 0 122.965-56.235 122.965-124.117-0.043-67.883-55.125-122.965-122.965-122.965v0z"></path>
</svg>
